<svg width="20" height="17" viewBox="0 0 20 17" fill="none" xmlns="http://www.w3.org/2000/svg">
<path d="M15 12.6667H12.5M15 10.1667H12.5M5.00002 16H15C16.841 16 18.3334 14.5076 18.3334 12.6667V4.33333C18.3334 2.49238 16.841 1 15 1H5.00002C3.15907 1 1.66669 2.49238 1.66669 4.33333V12.6667C1.66669 14.5076 3.15907 16 5.00002 16ZM6.66669 4.33333H8.33335C9.25383 4.33333 10 5.07953 10 6C10 6.92047 9.25383 7.66667 8.33335 7.66667H6.66669C5.74621 7.66667 5.00002 6.92047 5.00002 6C5.00002 5.07953 5.74621 4.33333 6.66669 4.33333Z" stroke="#8A8A8A" stroke-width="1.5" stroke-linecap="round" stroke-linejoin="round"/>
</svg>
