<svg width="20" height="19" viewBox="0 0 20 19" fill="none" xmlns="http://www.w3.org/2000/svg">
<path d="M1.66666 2.83333C1.66666 1.91286 2.41285 1.16667 3.33332 1.16667H6.66666C7.58713 1.16667 8.33332 1.91286 8.33332 2.83333V6.16667C8.33332 7.08714 7.58713 7.83333 6.66666 7.83333H3.33332C2.41285 7.83333 1.66666 7.08714 1.66666 6.16667V2.83333Z" stroke="#8A8A8A" stroke-width="1.5"/>
<path d="M18.3333 4.5C18.3333 6.34095 16.8409 7.83333 15 7.83333C13.159 7.83333 11.6667 6.34095 11.6667 4.5C11.6667 2.65905 13.159 1.16667 15 1.16667C16.8409 1.16667 18.3333 2.65905 18.3333 4.5Z" stroke="#8A8A8A" stroke-width="1.5"/>
<path d="M8.33332 14.5C8.33332 16.3409 6.84094 17.8333 4.99999 17.8333C3.15904 17.8333 1.66666 16.3409 1.66666 14.5C1.66666 12.6591 3.15904 11.1667 4.99999 11.1667C6.84094 11.1667 8.33332 12.6591 8.33332 14.5Z" stroke="#8A8A8A" stroke-width="1.5"/>
<path d="M11.6667 12.8333C11.6667 11.9129 12.4128 11.1667 13.3333 11.1667H16.6667C17.5871 11.1667 18.3333 11.9129 18.3333 12.8333V16.1667C18.3333 17.0871 17.5871 17.8333 16.6667 17.8333H13.3333C12.4128 17.8333 11.6667 17.0871 11.6667 16.1667V12.8333Z" stroke="#8A8A8A" stroke-width="1.5"/>
</svg>
